<svg xmlns="http://www.w3.org/2000/svg" width="104" height="104" fill="none" viewBox="0 0 104 104">
    <g clip-path="url(#clip0)">
        <path fill="#001634" d="M30.666 102.053c-2.05-1.364-3.867-3.05-5.382-4.992-1.665-2.004-3.209-4.108-4.621-6.298-3.315-4.856-5.914-10.164-7.719-15.76-2.168-6.5-3.217-12.73-3.217-18.823 0-6.806 1.472-12.747 4.351-17.739 2.135-3.902 5.273-7.162 9.09-9.444 3.7-2.298 7.95-3.556 12.305-3.64 1.524 0 3.166.22 4.908.643 1.25.354 2.775.913 4.637 1.609 2.37.913 3.673 1.472 4.115 1.609 1.388.507 2.554.728 3.47.728.696 0 1.678-.221 2.793-.56.627-.22 1.81-.61 3.503-1.335 1.677-.611 2.997-1.134 4.046-1.524 1.61-.475 3.166-.914 4.554-1.135 1.645-.259 3.314-.328 4.975-.204 2.879.188 5.714.798 8.415 1.81 4.416 1.778 7.988 4.553 10.647 8.499-1.124.692-2.179 1.491-3.15 2.385-2.114 1.874-3.914 4.074-5.333 6.516-1.855 3.338-2.816 7.098-2.792 10.917.069 4.69 1.271 8.82 3.64 12.392 1.742 2.648 4.006 4.911 6.653 6.653 1.355.913 2.522 1.54 3.64 1.963-.523 1.625-1.082 3.198-1.742 4.758-1.496 3.498-3.31 6.852-5.418 10.02-1.878 2.727-3.35 4.758-4.468 6.11-1.742 2.064-3.42 3.64-5.113 4.738-1.862 1.235-4.062 1.895-6.298 1.895-1.514.058-3.028-.125-4.485-.543-1.251-.422-2.49-.88-3.708-1.404-1.268-.582-2.574-1.074-3.91-1.472-3.303-.848-6.766-.854-10.072-.016-1.355.39-2.658.845-3.945 1.404-1.81.76-3.013 1.271-3.709 1.488-1.387.407-2.827.66-4.283.745-2.252 0-4.352-.644-6.432-1.947l.055-.046zm29.705-79.998c-2.944 1.472-5.755 2.1-8.547 1.894-.439-2.81 0-5.687 1.167-8.836.993-2.668 2.46-5.135 4.332-7.28 1.976-2.26 4.374-4.11 7.059-5.45C67.242.91 69.969.112 72.575-.004c.338 2.944 0 5.84-1.082 8.97-1.002 2.766-2.467 5.343-4.332 7.618-1.905 2.262-4.242 4.12-6.874 5.466l.084.004z"/>
    </g>
    <defs>
        <clipPath id="clip0">
            <path fill="#fff" d="M0 0H104V104H0z"/>
        </clipPath>
    </defs>
</svg>
