<svg xmlns="http://www.w3.org/2000/svg" width="50" height="50" fill="none" viewBox="0 0 50 50">
    <path fill="#1A22C7" d="M47.656 1.563h-7.812c-.207 0-.406.082-.553.228-.146.147-.228.346-.228.553v3.278C35.022 2.996 30.087 1.562 25 1.562s-10.022 1.434-14.063 4.06V2.344c0-.207-.082-.406-.228-.553-.147-.146-.345-.228-.553-.228H2.344c-.207 0-.406.082-.553.228-.146.147-.228.346-.228.553v24.262c0 .606.141 1.204.412 1.747L7.323 39.05c.19.38.454.72.775.998.322.278.695.49 1.1.624.403.133.83.186 1.254.154.424-.032.838-.148 1.217-.34 1.52 2.18 3.382 4.033 5.436 5.398 2.511 1.67 5.241 2.553 7.895 2.553s5.384-.882 7.895-2.553c2.054-1.366 3.917-3.219 5.436-5.399.45.23.949.35 1.454.35.235 0 .469-.026.698-.077.47-.102.911-.309 1.291-.604.38-.296.688-.674.903-1.105l5.348-10.696c.27-.543.412-1.14.413-1.747V2.344c0-.207-.083-.406-.23-.553-.146-.146-.345-.228-.552-.228zM36.201 17.21c-2.24-1.534-5.015-2.542-8.086-2.947 1.287-1.013 2.391-2.348 2.974-3.11 1.943-2.543 2.882-4.751 3.178-6.262 1.699.677 3.31 1.558 4.795 2.624v4.66l-.134.134c-1.351 1.345-2.296 3.043-2.727 4.9zM25 3.125c2.642-.003 5.267.411 7.78 1.227-.202 1.485-1.329 3.755-2.932 5.853-1.764 2.307-3.712 3.857-4.848 3.857-4.302 0-8.226 1.111-11.201 3.149-.43-1.857-1.376-3.556-2.727-4.9l-.134-.134V7.516C14.872 4.682 19.848 3.125 25 3.125zM9.852 39.232c-.242-.053-.47-.159-.666-.312-.196-.152-.355-.347-.465-.569L3.372 27.654c-.162-.325-.247-.684-.247-1.048V3.125h6.25V12.5c0 .103.02.204.06.299.039.095.096.18.169.253l.363.363c.805.802 1.444 1.755 1.879 2.805.435 1.05.657 2.175.654 3.311v7.813c0 .414-.165.812-.458 1.105-.293.293-.69.457-1.104.457-.415 0-.812-.164-1.105-.457-.293-.293-.458-.69-.458-1.105v-5.469c0-.207-.082-.406-.229-.552-.146-.147-.345-.23-.552-.23-.207 0-.406.083-.553.23-.146.146-.229.345-.229.552v7.031c0 .122.029.241.083.35l3.803 7.606c.14.281.199.596.168.91-.031.312-.15.61-.343.857-.193.248-.453.436-.748.543-.296.107-.616.128-.922.06zM25 46.875c-4.41 0-8.998-2.825-12.145-7.424.33-.477.526-1.033.569-1.61.042-.579-.071-1.158-.328-1.678l-2.89-5.78c.459.11.937.115 1.399.014.462-.102.894-.306 1.266-.598.371-.293.671-.666.878-1.091.206-.425.313-.892.313-1.364V19.53c0-.19-.005-.38-.016-.57 2.774-2.153 6.647-3.336 10.954-3.336s8.18 1.183 10.954 3.337c-.01.189-.017.378-.017.57v7.812c0 .472.108.939.314 1.364.207.425.507.798.878 1.09.372.293.804.497 1.266.598.462.101.94.097 1.4-.014l-2.89 5.781c-.258.52-.37 1.099-.328 1.677.042.578.238 1.134.569 1.611-3.148 4.6-7.737 7.424-12.146 7.424zm21.875-20.269c0 .364-.085.723-.248 1.048L41.28 38.351c-.098.196-.233.37-.398.513-.165.143-.357.253-.564.322-.207.069-.426.096-.644.08-.218-.015-.431-.073-.627-.17-.195-.098-.37-.234-.513-.399-.143-.165-.252-.357-.322-.564-.069-.207-.096-.426-.08-.644.015-.218.073-.431.17-.627l3.804-7.606c.054-.109.083-.229.083-.35v-7.031c0-.207-.083-.406-.23-.552-.146-.147-.345-.23-.552-.23-.207 0-.406.083-.552.23-.147.146-.229.345-.229.552v5.469c0 .414-.165.812-.458 1.105-.293.293-.69.457-1.105.457-.414 0-.811-.164-1.104-.457-.293-.293-.458-.69-.458-1.105V19.53c-.003-1.136.22-2.262.654-3.311.435-1.05 1.074-2.003 1.88-2.805l.362-.363c.073-.072.13-.158.17-.253.039-.095.059-.196.059-.299V3.125h6.25v23.481z"/>
    <path fill="#1A22C7" d="M20.313 28.906c0-.207-.083-.406-.23-.552-.146-.147-.345-.229-.552-.229-.207 0-.406.082-.552.229-.147.146-.229.345-.229.552 0 .207-.082.406-.229.553-.146.146-.345.229-.552.229-.207 0-.406-.083-.553-.23-.146-.146-.229-.345-.229-.552 0-.207-.082-.406-.228-.552-.147-.147-.346-.229-.553-.229-.207 0-.406.082-.552.229-.147.146-.229.345-.229.552 0 .622.247 1.218.686 1.658.44.44 1.036.686 1.658.686.621 0 1.217-.247 1.657-.686.44-.44.686-1.036.686-1.658zM33.594 28.125c-.208 0-.406.082-.553.229-.146.146-.228.345-.228.552 0 .207-.083.406-.23.553-.146.146-.344.229-.552.229-.207 0-.406-.083-.552-.23-.147-.146-.229-.345-.229-.552 0-.207-.082-.406-.229-.552-.146-.147-.345-.229-.552-.229-.207 0-.406.082-.553.229-.146.146-.229.345-.229.552 0 .622.247 1.218.687 1.658.44.44 1.036.686 1.657.686.622 0 1.218-.247 1.657-.686.44-.44.687-1.036.687-1.658 0-.207-.082-.406-.229-.552-.146-.147-.345-.229-.552-.229zM30.784 36.003c-.19-.083-.405-.087-.598-.012-.193.076-.348.225-.431.415-.012.026-1.204 2.657-4.753 2.657-3.503 0-4.7-2.541-4.755-2.66-.085-.188-.24-.335-.432-.409-.193-.074-.406-.068-.595.015-.188.083-.336.237-.412.428-.075.192-.072.406.01.595.063.147 1.624 3.593 6.184 3.593 4.56 0 6.12-3.446 6.184-3.593.083-.19.087-.405.012-.598-.075-.193-.224-.348-.414-.431zM23.438 34.375h3.125c.207 0 .405-.082.552-.229.146-.146.229-.345.229-.552 0-.208-.083-.406-.23-.553-.146-.146-.344-.228-.552-.228H24.22v-2.344c0-.207-.083-.406-.23-.553-.146-.146-.344-.229-.552-.229-.207 0-.405.083-.552.23-.146.146-.229.345-.229.552v3.125c0 .207.083.406.23.552.146.147.344.229.552.229z"/>
</svg>
