<svg xmlns="http://www.w3.org/2000/svg" width="104" height="104" fill="none" viewBox="0 0 104 104">
    <path fill="#001634" d="M89.375 11.375h-74.75c-1.798 0-3.25 1.452-3.25 3.25v74.75c0 1.798 1.452 3.25 3.25 3.25h74.75c1.798 0 3.25-1.452 3.25-3.25v-74.75c0-1.798-1.452-3.25-3.25-3.25zM79.991 35.09H73.5c-5.089 0-6.074 2.417-6.074 5.972v7.83h12.147L77.99 61.151H67.427v31.474H54.762V61.161H44.17V48.892h10.594v-9.039c0-10.491 6.408-16.21 15.772-16.21 4.49 0 8.338.336 9.466.488V35.09h-.01z"/>
</svg>
