<svg xmlns="http://www.w3.org/2000/svg" width="104" height="104" fill="none" viewBox="0 0 104 104">
    <path fill="#001634" d="M89.375 11.375h-74.75c-1.798 0-3.25 1.452-3.25 3.25v74.75c0 1.798 1.452 3.25 3.25 3.25h74.75c1.798 0 3.25-1.452 3.25-3.25v-74.75c0-1.798-1.452-3.25-3.25-3.25zM68.961 70.85c-4.123 3.798-9.75 6.033-16.463 6.033-9.72 0-18.13-5.576-22.222-13.701-1.744-3.47-2.652-7.299-2.651-11.182 0-4.022.965-7.82 2.65-11.182 4.094-8.135 12.503-13.711 22.223-13.711 6.703 0 12.33 2.468 16.646 6.48l-7.13 7.14c-2.58-2.468-5.86-3.718-9.506-3.718-6.48 0-11.964 4.378-13.924 10.258-.498 1.493-.782 3.088-.782 4.733 0 1.645.284 3.24.782 4.733 1.96 5.88 7.444 10.258 13.914 10.258 3.351 0 6.195-.884 8.42-2.377 2.64-1.767 4.387-4.398 4.966-7.516H52.498V47.47h23.43c.295 1.636.447 3.332.447 5.089 0 7.586-2.712 13.954-7.414 18.291z"/>
</svg>
