<svg xmlns="http://www.w3.org/2000/svg" width="50" height="50" fill="none" viewBox="0 0 50 50">
    <g clip-path="url(#clip0)">
        <path fill="#001634" d="M28.241 6.476c.17 0 .271.006.342.008l1.02-.008c.336-.002.636-.21.756-.524.121-.314.037-.668-.211-.895-2.145-1.963-4.813-2.959-7.934-2.959-6.222 0-12.664 4.118-13.97 6.895-1.546 3.285-3.494 5.262-3.514 5.282-.158.16-.245.378-.237.603.007.225.106.437.276.587l5.103 4.49c.19.167.451.228.703.177.249-.05.465-.222.578-.45.043-.086.503-.893 2.041-.752 1.976.18 3.264 1.07 3.277 1.078.142.1.306.15.472.15.198 0 .395-.073.551-.215l4.899-4.49c.268-.246.341-.64.179-.968l-2.053-4.105c2.135-3.614 6.425-3.904 7.723-3.904zm-9.37 3.51c-.12.232-.123.507-.006.741l1.97 3.94-3.998 3.664c-.674-.357-1.898-.881-3.494-1.027-.176-.016-.343-.023-.502-.023-1.182 0-2.008.414-2.534.882l-3.839-3.379c.752-.882 2.098-2.64 3.253-5.096.985-2.092 6.799-5.957 12.493-5.957 1.83 0 3.475.391 4.915 1.166-2.207.205-6.204 1.139-8.258 5.089zM5.797 25.266c.149.126.336.195.53.195.023 0 .047 0 .071-.003.219-.02.42-.125.558-.295l2.858-3.47c.28-.34.24-.839-.089-1.13l-5.307-4.694c-.161-.144-.371-.213-.591-.204-.217.014-.419.112-.561.275L.204 19.41c-.145.164-.218.38-.202.598.015.219.118.421.285.563l5.51 4.695zm-1.848-7.633l4.104 3.63-1.829 2.221-4.246-3.617 1.971-2.234zM49.627 39.899L35.675 26.514l-5.682-5.544 11.705-10.82.585.585c.153.154.36.24.578.24l.034-.001c.228-.01.442-.115.589-.29l4.316-5.11c.142-.167.21-.386.19-.604-.021-.22-.13-.42-.3-.558l-1.599-1.29c-.298-.239-.723-.241-1.023-.002l-5.065 4.052c-.18.146-.292.361-.304.593-.014.232.073.459.237.623l.607.606-11.72 10.834L24.5 15.61c-.304-.297-.787-.31-1.106-.031l-5.612 4.898c-.168.146-.268.354-.28.574-.011.222.067.438.22.6l4.234 4.526-.535.495-2.062-2.087c-.3-.305-.788-.324-1.113-.046L.41 39.87c-.094.082-.169.183-.217.296-.597 1.382.258 3.565 2.126 5.432 1.42 1.422 3.122 2.305 4.44 2.305.453 0 .856-.1 1.197-.297.061-.035.118-.08.168-.13l16.46-16.447c.317-.318.319-.832.003-1.151l-2.02-2.043.504-.464 18.79 20.087c.055.057.119.109.188.148.34.198.743.297 1.196.297 1.317 0 3.019-.883 4.44-2.304 1.869-1.868 2.724-4.05 2.127-5.432-.043-.101-.105-.192-.184-.267zm-4.05-35.094l.438.354-3.205 3.793-1.074-1.073 3.84-3.074zM7.064 46.225c-.569.207-2.12-.31-3.592-1.782-1.407-1.407-1.933-2.847-1.823-3.487l17.081-14.681 4.123 4.171L7.066 46.224zm12.426-25.073l4.407-3.847 3.724 3.633-4.468 4.132-3.663-3.918zm27.039 23.29c-1.463 1.465-3.004 1.984-3.582 1.786L24.268 26.26l4.524-4.18 5.747 5.607L48.35 40.936c.124.63-.398 2.085-1.82 3.507z"/>
    </g>
    <defs>
        <clipPath id="clip0">
            <path fill="#fff" d="M0 0H50V50H0z"/>
        </clipPath>
    </defs>
</svg>
