<svg xmlns="http://www.w3.org/2000/svg" width="72" height="72" fill="none" viewBox="0 0 72 72">
    <g clip-path="url(#clip0)">
        <path fill="#428CF2" d="M64.912 68.5c.588 0 1.065-.477 1.065-1.065v-5.616c0-5.562-3.742-10.485-9.1-11.972l-11.663-3.24-3.095-3.096v-4.573c3.935-1.874 6.892-5.48 7.88-9.826h1.422c2.153 0 3.906-1.752 3.906-3.905v-1.989c0-1.142-.494-2.171-1.279-2.886V2.13h4.829v10.385c-1.479.456-2.557 1.835-2.557 3.461s1.078 3.006 2.557 3.462v2.645c0 .588.477 1.065 1.065 1.065s1.065-.477 1.065-1.066v-2.644c1.478-.456 2.556-1.836 2.556-3.462 0-1.626-1.078-3.005-2.556-3.46V2.13h1.065c.588 0 1.065-.477 1.065-1.065S62.66 0 62.072 0H9.812c-.588 0-1.066.477-1.066 1.065S9.224 2.13 9.811 2.13h8.024v7.305c0 .588.477 1.065 1.065 1.065.589 0 1.066-.477 1.066-1.065V2.13h31.952v12.497H19.965V9.24c0-.588-.476-1.065-1.065-1.065-.588 0-1.065.477-1.065 1.066v11.092c-.785.715-1.278 1.744-1.278 2.887v1.988c0 2.153 1.752 3.906 3.906 3.906h1.422c.987 4.346 3.944 7.952 7.88 9.826v4.572l-3.096 3.096-11.662 3.24c-5.358 1.487-9.1 6.41-9.1 11.972v5.616c0 .588.476 1.065 1.064 1.065.589 0 1.066-.477 1.066-1.065v-5.616c0-4.608 3.1-8.688 7.54-9.92l7.024-1.95 3.946 12.502c.05.155.133.296.244.414l6.667 7.005H18.83v-3.337c0-.589-.477-1.066-1.066-1.066-.588 0-1.065.477-1.065 1.066v3.337H8.036v-2.423c0-.589-.476-1.065-1.065-1.065-.588 0-1.065.476-1.065 1.065v3.488c0 .588.477 1.065 1.065 1.065h57.941c.588 0 1.065-.477 1.065-1.065v-3.488c0-.589-.477-1.065-1.065-1.065s-1.065.476-1.065 1.065v2.423h-8.663v-3.337c0-.589-.476-1.066-1.065-1.066-.588 0-1.065.477-1.065 1.066v3.337H38.426l6.666-7.006c.112-.117.195-.258.244-.413l3.947-12.503 7.024 1.951c4.44 1.232 7.54 5.311 7.54 9.92v5.616c0 .588.477 1.065 1.065 1.065zm-4.97-51.032c-.822 0-1.491-.67-1.491-1.492s.669-1.491 1.491-1.491c.822 0 1.49.669 1.49 1.491 0 .823-.668 1.492-1.49 1.492zM34.117 58.793h3.65l1.434 7.172-3.26 3.425-3.259-3.425 1.435-7.172zm4.037-2.13H33.73l-1.801-2.078 4.013-4.014 4.013 4.014-1.801 2.078zm2.907-3.985l-3.613-3.613 3.606-3.606 2.211 2.21-2.204 5.01zm12.135-27.471c0 .979-.796 1.775-1.775 1.775h-1.065v-5.538h1.065c.979 0 1.775.796 1.775 1.775v1.988zm-1.278-5.86c-.163-.021-.328-.034-.497-.034h-1.065v-2.556h1.562v2.59zm-31.953-2.59h1.563v2.557h-1.065c-.17 0-.334.012-.498.032v-2.589zm1.563 10.225h-1.065c-.98 0-1.776-.796-1.776-1.775v-1.988c0-.979.797-1.775 1.776-1.775h1.065v5.538zm2.13-1.065v-9.16h24.568v9.16c0 6.774-5.51 12.284-12.284 12.284-6.774 0-12.284-5.51-12.284-12.284zm12.284 14.414c1.404 0 2.762-.202 4.047-.579v3.76l-4.047 4.047-4.048-4.048v-3.76c1.285.378 2.643.58 4.048.58zm-5.113 5.128l3.606 3.606-3.613 3.613-2.204-5.008 2.211-2.211zm-6.175 3.918l2.128-.591 2.714 6.168c.017.04.037.078.059.115l.018.03c.015.023.03.046.048.069l.027.035.022.027 2.427 2.8-1.21 6.048-2.382-2.504-3.85-12.197zM43.38 61.574l-2.383 2.504-1.209-6.047 2.427-2.801.021-.027.028-.036c.017-.022.033-.045.047-.069l.02-.03c.02-.037.04-.075.058-.114l2.714-6.168 2.127.591-3.85 12.197z"/>
    </g>
    <defs>
        <clipPath id="clip0">
            <path fill="#fff" d="M0 0H72V72H0z"/>
        </clipPath>
    </defs>
</svg>
