<svg xmlns="http://www.w3.org/2000/svg" width="72" height="72" fill="none" viewBox="0 0 72 72">
    <g fill="#428CF2" clip-path="url(#clip0)">
        <path d="M70.943 67.069h-2.325V37.62h2.325c.386 0 .741-.21.927-.548.185-.338.172-.75-.035-1.076l-7.89-12.399c-.194-.305-.53-.49-.892-.49h-20.98l-5.016-5.016v-4.142h10.215c.39 0 .748-.214.932-.558.184-.344.163-.76-.053-1.085l-1.863-2.795 1.863-2.796c.217-.324.237-.741.053-1.085-.184-.343-.542-.558-.932-.558H37.057V3.875c0-.584-.473-1.057-1.057-1.057s-1.057.473-1.057 1.057V18.09l-5.017 5.017H8.947c-.361 0-.697.184-.891.49L.166 35.995c-.208.326-.221.738-.036 1.076.186.338.541.548.927.548h2.325V67.07H1.057c-.584 0-1.057.473-1.057 1.056 0 .584.473 1.057 1.057 1.057h69.886c.584 0 1.057-.473 1.057-1.057 0-.583-.473-1.056-1.057-1.056zm-8.47-41.848l6.545 10.286H54.473L44.187 25.22h18.286zM45.298 7.186l-1.16 1.739c-.236.355-.236.817 0 1.172l1.16 1.739h-8.241v-4.65h8.24zM9.527 25.22h18.285L17.527 35.507H2.982L9.527 25.22zm-4.033 12.4h12.47c.035 0 .07-.003.104-.006l.045-.006c.019-.003.038-.005.058-.01.017-.003.034-.007.05-.012l.05-.012.049-.018c.016-.005.032-.01.048-.017l.045-.021c.017-.008.033-.015.049-.024.014-.007.028-.016.042-.025l.047-.028.045-.033.037-.028c.028-.023.053-.046.078-.07L36 20.022 53.288 37.31c.025.025.05.048.078.07.011.01.024.02.037.029.015.011.03.023.046.033.015.01.03.02.046.028l.042.026.048.023.046.02.048.018c.016.006.032.013.05.018.015.005.032.008.048.012.017.005.034.01.051.013.02.004.038.006.057.008.015.003.03.006.046.007.035.003.07.005.104.005h12.47V67.07H43.82V52.343c0-1.825-1.485-3.31-3.311-3.31H31.49c-1.826 0-3.31 1.485-3.31 3.31v14.724H5.494V37.62zm36.212 15.921H30.294v-1.198c0-.66.537-1.197 1.197-1.197h9.018c.66 0 1.197.537 1.197 1.197v1.198zm-11.413 2.114h4.65v11.413h-4.65V55.656zm6.763 0h4.65v11.413h-4.65V55.656z"/>
        <path d="M36 45.51c4.312 0 7.82-3.507 7.82-7.82 0-4.311-3.508-7.82-7.82-7.82s-7.82 3.509-7.82 7.82c0 4.313 3.508 7.82 7.82 7.82zm0-13.526c3.146 0 5.706 2.56 5.706 5.707 0 3.146-2.56 5.706-5.706 5.706-3.147 0-5.707-2.56-5.707-5.706 0-3.147 2.56-5.707 5.707-5.707z"/>
        <path d="M36 38.748c.584 0 1.058-.474 1.058-1.057v-3.382c0-.583-.474-1.057-1.057-1.057-.584 0-1.057.474-1.057 1.057v2.325H32.62c-.583 0-1.056.473-1.056 1.057 0 .583.473 1.057 1.056 1.057h3.382zM24.728 54.67h-5.636c-.584 0-1.057.472-1.057 1.056v6.763c0 .584.473 1.057 1.057 1.057h5.636c.583 0 1.057-.473 1.057-1.057v-6.763c0-.584-.474-1.057-1.057-1.057zm-1.057 2.113v1.268H20.15v-1.268h3.522zm-3.522 4.65v-1.269h3.522v1.268H20.15zM14.583 54.67H8.947c-.583 0-1.056.472-1.056 1.056v6.763c0 .584.473 1.057 1.056 1.057h5.636c.584 0 1.057-.473 1.057-1.057v-6.763c0-.584-.473-1.057-1.057-1.057zm-1.056 2.113v1.268h-3.523v-1.268h3.523zm-3.523 4.65v-1.269h3.523v1.268h-3.523zM24.376 41.143h-4.932c-.777 0-1.409.632-1.409 1.409v7.538c0 .584.473 1.057 1.057 1.057h5.636c.583 0 1.057-.473 1.057-1.057v-7.538c0-.777-.632-1.41-1.41-1.41zm-.705 2.113v2.396H20.15v-2.396h3.522zm-3.522 5.777v-1.268h3.522v1.268H20.15zM14.231 41.143H9.3c-.777 0-1.41.632-1.41 1.409v7.538c0 .584.474 1.057 1.057 1.057h5.636c.584 0 1.057-.473 1.057-1.057v-7.538c0-.777-.632-1.41-1.409-1.41zm-.704 2.113v2.396h-3.523v-2.396h3.523zm-3.523 5.777v-1.268h3.523v1.268h-3.523zM57.416 63.546h5.636c.584 0 1.057-.473 1.057-1.057v-6.763c0-.584-.473-1.057-1.057-1.057h-5.636c-.583 0-1.057.473-1.057 1.057v6.763c0 .584.474 1.057 1.057 1.057zm1.057-2.114v-1.268h3.522v1.268h-3.522zm3.522-4.65v1.269h-3.522v-1.268h3.522zM47.272 63.546h5.636c.583 0 1.056-.473 1.056-1.057v-6.763c0-.584-.473-1.057-1.056-1.057h-5.636c-.584 0-1.057.473-1.057 1.057v6.763c0 .584.473 1.057 1.057 1.057zm1.056-2.114v-1.268h3.523v1.268h-3.523zm3.523-4.65v1.269h-3.523v-1.268h3.523zM57.416 51.147h5.636c.584 0 1.057-.473 1.057-1.057v-7.538c0-.777-.632-1.41-1.41-1.41h-4.93c-.777 0-1.41.633-1.41 1.41v7.538c0 .584.474 1.057 1.057 1.057zm1.057-2.114v-1.268h3.522v1.268h-3.522zm3.522-5.777v2.396h-3.522v-2.396h3.522zM47.272 51.147h5.636c.583 0 1.056-.473 1.056-1.057v-7.538c0-.777-.632-1.41-1.409-1.41h-4.931c-.777 0-1.41.633-1.41 1.41v7.538c0 .584.474 1.057 1.058 1.057zm1.056-2.114v-1.268h3.523v1.268h-3.523zm3.523-5.777v2.396h-3.523v-2.396h3.523z"/>
    </g>
    <defs>
        <clipPath id="clip0">
            <path fill="#fff" d="M0 0H72V72H0z"/>
        </clipPath>
    </defs>
</svg>
