<svg xmlns="http://www.w3.org/2000/svg" width="72" height="72" fill="none" viewBox="0 0 72 72">
    <path fill="#428CF2" d="M70.8 0H1.2C.536 0 0 .538 0 1.2v43.2c0 .662.536 1.2 1.2 1.2h12v2.174C11.052 49.021 9.6 51.342 9.6 54c0 2.334 1.122 4.406 2.849 5.723C8.656 61.4 6 65.193 6 69.6v1.2c0 .662.536 1.2 1.2 1.2H64.8c.664 0 1.2-.538 1.2-1.2v-1.2c0-4.406-2.656-8.2-6.449-9.877C61.278 58.406 62.4 56.334 62.4 54c0-2.658-1.452-4.979-3.6-6.226V45.6h12c.664 0 1.2-.538 1.2-1.2V1.2c0-.662-.536-1.2-1.2-1.2zM12 54c0-2.647 2.153-4.8 4.8-4.8s4.8 2.153 4.8 4.8-2.153 4.8-4.8 4.8S12 56.647 12 54zM8.4 69.6c0-4.632 3.77-8.4 8.4-8.4 4.63 0 8.4 3.768 8.4 8.4H8.4zm12.751-9.877C22.878 58.406 24 56.334 24 54c0-1.846-.703-3.524-1.848-4.8h8.497C29.503 50.476 28.8 52.154 28.8 54c0 2.334 1.122 4.406 2.849 5.723-2.266 1.002-4.12 2.759-5.249 4.951-1.13-2.192-2.983-3.95-5.249-4.951zM31.2 54c0-2.647 2.153-4.8 4.8-4.8s4.8 2.153 4.8 4.8-2.153 4.8-4.8 4.8-4.8-2.153-4.8-4.8zm-3.6 15.6c0-4.632 3.77-8.4 8.4-8.4 4.63 0 8.4 3.768 8.4 8.4H27.6zm12.751-9.877C42.078 58.406 43.2 56.334 43.2 54c0-1.846-.703-3.524-1.848-4.8h8.497C48.703 50.476 48 52.154 48 54c0 2.334 1.122 4.406 2.849 5.723-2.266 1.002-4.12 2.759-5.249 4.951-1.13-2.192-2.983-3.95-5.249-4.951zM63.6 69.6H46.8c0-4.632 3.77-8.4 8.4-8.4 4.63 0 8.4 3.768 8.4 8.4zM60 54c0 2.647-2.153 4.8-4.8 4.8s-4.8-2.153-4.8-4.8 2.153-4.8 4.8-4.8S60 51.353 60 54zm-2.4-16.8H54v2.4h2.4v7.2H15.6v-8.4c0-.662-.536-1.2-1.2-1.2h-3.6v-2.4h50.4v2.4h-3.6zm-14.526-18c1.357 0 2.688.467 3.748 1.315l4.027 3.222c.258.207.59.299.915.252.326-.045.62-.223.812-.492l5.286-7.4 2.871 2.153-5.888 8.097c-.592.815-1.469 1.331-2.467 1.456-1.002.123-1.976-.162-2.748-.807l-3.262-2.718c-.358-.297-.857-.36-1.277-.165-.421.198-.691.621-.691 1.087v7.2h-7.2V21.6h-2.4v10.8h-7.2v-7.2c0-.466-.27-.89-.691-1.087-.418-.196-.918-.133-1.277.165l-3.262 2.718c-.774.646-1.744.93-2.748.807-.998-.125-1.874-.641-2.467-1.456l-5.888-8.097 2.871-2.153 5.286 7.4c.191.269.485.447.812.492.326.048.657-.045.915-.252l4.027-3.222c1.059-.848 2.39-1.315 3.747-1.315h14.149zM31.2 12c0-2.647 2.153-4.8 4.8-4.8s4.8 2.153 4.8 4.8-2.153 4.8-4.8 4.8-4.8-2.153-4.8-4.8zm38.4 31.2H58.8v-3.6h3.6c.664 0 1.2-.538 1.2-1.2v-4.8c0-.662-.536-1.2-1.2-1.2H46.8v-4.638l1.292 1.078c1.272 1.06 2.948 1.549 4.58 1.345 1.641-.203 3.14-1.087 4.113-2.425l6.585-9.053c.385-.53.274-1.273-.251-1.666l-4.8-3.6c-.258-.194-.579-.275-.904-.225-.319.049-.605.225-.792.488l-5.263 7.368-3.037-2.43c-1.485-1.188-3.348-1.842-5.248-1.842h-1.723c1.145-1.276 1.848-2.954 1.848-4.8 0-3.97-3.23-7.2-7.2-7.2s-7.2 3.23-7.2 7.2c0 1.846.703 3.524 1.848 4.8h-1.723c-1.901 0-3.765.654-5.248 1.84l-3.037 2.432-5.264-7.37c-.188-.262-.474-.438-.792-.488-.326-.048-.646.033-.904.226l-4.8 3.6c-.526.394-.636 1.135-.25 1.666l6.584 9.052c.973 1.337 2.472 2.222 4.112 2.426 1.63.202 3.31-.286 4.58-1.346l1.294-1.076V32.4H9.6c-.664 0-1.2.538-1.2 1.2v4.8c0 .662.536 1.2 1.2 1.2h3.6v3.6H2.4V2.4h67.2v40.8z"/>
    <path fill="#428CF2" d="M67.2 4.8h-2.4v2.4h2.4V4.8zM62.4 4.8H60v2.4h2.4V4.8zM57.6 4.8h-2.4v2.4h2.4V4.8z"/>
</svg>
