<svg xmlns="http://www.w3.org/2000/svg" width="50" height="50" fill="none" viewBox="0 0 50 50">
    <path fill="#001634" d="M19.725 35.04c-.19 0-.38-.066-.535-.198l-5.341-4.548c-.184-.157-.29-.387-.29-.63 0-.241.106-.47.29-.627l5.341-4.549c.347-.296.868-.254 1.164.093.295.348.254.869-.093 1.164l-4.604 3.92 4.604 3.92c.347.296.388.817.093 1.163-.163.193-.396.291-.63.291zM30.275 35.04c-.233 0-.466-.1-.629-.291-.295-.347-.254-.868.093-1.164l4.604-3.92-4.604-3.92c-.347-.296-.388-.816-.093-1.164.296-.347.817-.389 1.163-.093l5.342 4.549c.184.157.29.386.29.628s-.106.472-.29.629l-5.342 4.548c-.155.132-.345.197-.534.197zM23.112 38.45c-.057 0-.114-.005-.171-.017-.446-.094-.732-.532-.638-.978l3.33-15.806c.093-.446.53-.732.977-.638.446.094.732.532.638.978l-3.33 15.806c-.081.389-.424.656-.806.656z"/>
    <path fill="#001634" d="M44.458 47.114H5.542C2.487 47.114 0 44.628 0 41.572V8.541C0 5.487 2.487 3 5.542 3h38.916C47.514 3 50 5.487 50 8.542v33.03c0 3.056-2.486 5.542-5.542 5.542zM5.542 4.65c-2.145 0-3.891 1.746-3.891 3.891v33.03c0 2.145 1.746 3.891 3.891 3.891h38.916c2.145 0 3.891-1.746 3.891-3.892V8.542c0-2.145-1.746-3.891-3.891-3.891H5.542z"/>
    <path fill="#001634" d="M49.175 16.166H.825c-.456 0-.825-.37-.825-.825 0-.456.37-.826.825-.826h48.35c.456 0 .825.37.825.826 0 .456-.37.825-.825.825zM14.1 12.216c-1.44 0-2.612-1.172-2.612-2.612 0-1.44 1.173-2.612 2.613-2.612s2.612 1.171 2.612 2.612c0 1.44-1.172 2.612-2.612 2.612zm0-3.573c-.53 0-.96.43-.96.96 0 .531.43.962.96.962s.962-.43.962-.961c0-.53-.431-.961-.961-.961zM6.081 12.19c-1.44 0-2.612-1.171-2.612-2.611 0-1.44 1.172-2.613 2.612-2.613 1.44 0 2.612 1.172 2.612 2.613 0 1.44-1.172 2.612-2.612 2.612zm0-3.573c-.53 0-.961.432-.961.962s.431.96.961.96.961-.43.961-.96-.43-.962-.96-.962zM22.128 12.241c-1.44 0-2.612-1.172-2.612-2.612 0-1.44 1.172-2.612 2.612-2.612 1.44 0 2.612 1.172 2.612 2.612 0 1.44-1.172 2.612-2.612 2.612zm0-3.574c-.53 0-.961.432-.961.962s.43.961.96.961.962-.431.962-.961-.431-.962-.961-.962z"/>
</svg>
