<svg xmlns="http://www.w3.org/2000/svg" width="50" height="50" fill="none" viewBox="0 0 50 50">
    <path fill="#001634" d="M44.458 47.114H5.542C2.487 47.114 0 44.628 0 41.572V8.541C0 5.487 2.487 3 5.542 3h38.916C47.514 3 50 5.487 50 8.542v33.03c0 3.056-2.486 5.542-5.542 5.542zM5.542 4.65c-2.145 0-3.891 1.746-3.891 3.891v33.03c0 2.145 1.746 3.891 3.891 3.891h38.916c2.145 0 3.891-1.746 3.891-3.892V8.542c0-2.145-1.746-3.891-3.891-3.891H5.542z"/>
    <path fill="#001634" d="M49.175 16.166H.825c-.456 0-.825-.37-.825-.825 0-.456.37-.826.825-.826h48.35c.456 0 .825.37.825.826 0 .456-.37.825-.825.825zM14.1 12.216c-1.44 0-2.612-1.172-2.612-2.612 0-1.44 1.173-2.612 2.613-2.612s2.612 1.171 2.612 2.612c0 1.44-1.172 2.612-2.612 2.612zm0-3.573c-.53 0-.96.43-.96.96 0 .531.43.962.96.962s.962-.43.962-.961c0-.53-.431-.961-.961-.961zM6.081 12.19c-1.44 0-2.612-1.171-2.612-2.611 0-1.44 1.172-2.613 2.612-2.613 1.44 0 2.612 1.172 2.612 2.613 0 1.44-1.172 2.612-2.612 2.612zm0-3.573c-.53 0-.961.432-.961.962s.431.96.961.96.961-.43.961-.96-.43-.962-.96-.962zM22.128 12.241c-1.44 0-2.612-1.172-2.612-2.612 0-1.44 1.172-2.612 2.612-2.612 1.44 0 2.612 1.172 2.612 2.612 0 1.44-1.172 2.612-2.612 2.612zm0-3.574c-.53 0-.961.432-.961.962s.43.961.96.961.962-.431.962-.961-.431-.962-.961-.962zM23 23l.654-.368-.417-.74-.683.505L23 23zm4.5 8l-.654.368.457.81.695-.617L27.5 31zm14.249-11.956c.024-.413-.291-.768-.705-.793l-6.738-.396c-.414-.024-.769.291-.793.705-.024.413.291.768.705.792l5.99.353-.353 5.99c-.024.413.291.768.705.792.413.024.768-.291.792-.705l.397-6.738zM9.946 33.603l13.5-10-.892-1.206-13.5 10 .892 1.206zm12.4-10.235l4.5 8 1.308-.736-4.5-8-1.308.736zm5.652 8.193l13.5-12-.996-1.122-13.5 12 .996 1.122z"/>
    <path stroke="#001634" stroke-linecap="round" stroke-width="1.5" d="M11.75 34.75L11.75 41.25M19.75 29.75L19.75 41.25M27.75 34.75L27.75 41.25M35.75 27.75L35.75 41.25"/>
</svg>
