<svg xmlns="http://www.w3.org/2000/svg" width="104" height="104" fill="none" viewBox="0 0 104 104">
    <g clip-path="url(#clip0)">
        <path fill="#001634" d="M23.36.016l20.582 58.331v-.032l1.625 4.586c9.054 25.61 13.913 39.338 13.93 39.354l3.048.185c5.011.205 11.222.78 15.928 1.336 1.082.136 2.015.169 2.083.136L58.264 40.69l-10.51-29.689C46.519 7.457 45.267 3.92 43.997.387l-.137-.39H23.38l-.02.02zm36.864.036l-.052 22.987-.032 23.004-1.895-5.35-2.438 51.172c2.405 6.789 3.69 10.409 3.709 10.426.02.016 1.387.117 3.029.185 5.027.221 11.222.78 15.944 1.355 1.082.117 2.031.169 2.083.117.069-.032.085-23.478.085-52.032L80.624.052h-20.4zM23.36.016v51.948c0 28.574.033 51.984.069 52.017.035.032 1.794-.137 3.926-.374 2.173-.272 4.35-.504 6.532-.696 2.252-.221 8.97-.659 9.75-.659.221 0 .237-1.167.27-22.006l.032-22.022 1.642 4.605.575 1.625 2.47-51.135-.829-2.37L43.851.013 23.359.016z"/>
    </g>
    <defs>
        <clipPath id="clip0">
            <path fill="#fff" d="M0 0H104V104H0z"/>
        </clipPath>
    </defs>
</svg>
