<svg xmlns="http://www.w3.org/2000/svg" width="50" height="50" fill="none" viewBox="0 0 50 50">
    <path stroke="#001634" stroke-width="1.5" d="M8.774 4.762c0 2.216-1.796 4.012-4.012 4.012C2.546 8.774.75 6.978.75 4.762.75 2.546 2.546.75 4.762.75c2.216 0 4.012 1.796 4.012 4.012zm20.238 0c0 2.216-1.796 4.012-4.012 4.012-2.216 0-4.012-1.796-4.012-4.012C20.988 2.546 22.784.75 25 .75c2.216 0 4.012 1.796 4.012 4.012zm20.238 0c0 2.216-1.796 4.012-4.012 4.012-2.216 0-4.012-1.796-4.012-4.012 0-2.216 1.796-4.012 4.012-4.012 2.216 0 4.012 1.796 4.012 4.012zM8.774 25c0 2.216-1.796 4.012-4.012 4.012C2.546 29.012.75 27.216.75 25c0-2.216 1.796-4.012 4.012-4.012 2.216 0 4.012 1.796 4.012 4.012zm20.238 0c0 2.216-1.796 4.012-4.012 4.012-2.216 0-4.012-1.796-4.012-4.012 0-2.216 1.796-4.012 4.012-4.012 2.216 0 4.012 1.796 4.012 4.012zm20.238 0c0 2.216-1.796 4.012-4.012 4.012-2.216 0-4.012-1.796-4.012-4.012 0-2.216 1.796-4.012 4.012-4.012 2.216 0 4.012 1.796 4.012 4.012zM8.774 45.238c0 2.216-1.796 4.012-4.012 4.012-2.216 0-4.012-1.796-4.012-4.012 0-2.216 1.796-4.012 4.012-4.012 2.216 0 4.012 1.796 4.012 4.012zm20.238 0c0 2.216-1.796 4.012-4.012 4.012-2.216 0-4.012-1.796-4.012-4.012 0-2.216 1.796-4.012 4.012-4.012 2.216 0 4.012 1.796 4.012 4.012zm20.238 0c0 2.216-1.796 4.012-4.012 4.012-2.216 0-4.012-1.796-4.012-4.012 0-2.216 1.796-4.012 4.012-4.012 2.216 0 4.012 1.796 4.012 4.012z"/>
</svg>
