<svg xmlns="http://www.w3.org/2000/svg" width="50" height="50" fill="none" viewBox="0 0 50 50">
    <g fill="#001634" clip-path="url(#clip0)">
        <path d="M13.047 32.448c-.714-.565-1.61-.876-2.522-.876-1.239 0-2.393.55-3.165 1.51-.676.841-.982 1.893-.862 2.962.121 1.07.655 2.03 1.505 2.7.714.566 1.61.877 2.521.877 1.24 0 2.394-.552 3.166-1.513.676-.84.981-1.89.861-2.958-.12-1.07-.654-2.03-1.504-2.702zm-.795 4.503c-.42.524-1.05.824-1.728.824-.505 0-.981-.165-1.377-.478-.46-.364-.749-.882-.814-1.46-.065-.576.1-1.144.465-1.597.42-.522 1.05-.822 1.727-.822.506 0 .982.165 1.378.478.46.364.749.882.814 1.46.064.576-.1 1.142-.465 1.595zM29.279 22.994c.608 0 1.197-.133 1.75-.397.98-.468 1.714-1.287 2.07-2.306.354-1.013.29-2.103-.179-3.068-.67-1.384-2.104-2.278-3.651-2.278-.61 0-1.2.134-1.754.398-.978.467-1.713 1.285-2.07 2.305-.354 1.014-.29 2.104.18 3.07.672 1.383 2.107 2.276 3.654 2.276zm-2.092-4.737c.193-.551.592-.995 1.123-1.248.303-.145.626-.218.959-.218.844 0 1.626.486 1.99 1.238.254.52.288 1.108.098 1.653-.193.552-.592.996-1.123 1.25-.302.144-.624.216-.956.216-.845 0-1.628-.486-1.994-1.238-.253-.52-.287-1.107-.097-1.653zM19.232 16.472c.297.067.6.1.903.1 1.9 0 3.523-1.284 3.948-3.126.238-1.044.055-2.12-.516-3.028-.577-.915-1.477-1.551-2.535-1.791-.298-.068-.603-.102-.907-.102-1.899 0-3.52 1.286-3.943 3.128-.241 1.043-.059 2.119.513 3.027.576.917 1.478 1.553 2.537 1.792zm-1.251-4.405c.229-.999 1.111-1.696 2.144-1.696.166 0 .334.019.498.056.578.131 1.068.477 1.381.974.309.49.408 1.07.28 1.632-.227.981-1.13 1.694-2.15 1.694-.165 0-.332-.019-.496-.056-.577-.13-1.068-.476-1.38-.973-.309-.49-.407-1.07-.277-1.631zM11.896 18.774c.848-.672 1.381-1.632 1.502-2.703.12-1.068-.185-2.118-.86-2.959-.774-.96-1.93-1.51-3.168-1.51-.911 0-1.806.31-2.52.874-.85.67-1.383 1.628-1.504 2.699-.12 1.069.185 2.121.862 2.963.773.961 1.928 1.512 3.169 1.512.911 0 1.806-.311 2.519-.876zm-4.25-1.793c-.365-.455-.53-1.023-.465-1.6.065-.576.354-1.094.812-1.457.396-.311.872-.476 1.377-.476.678 0 1.309.3 1.73.821.364.453.529 1.02.464 1.595-.065.58-.355 1.099-.814 1.463-.394.312-.869.477-1.373.477-.68 0-1.31-.3-1.73-.823z"/>
        <path d="M49.647 9.743c-.16-.161-.444-.353-.893-.353-.527 0-1.925 0-10.42 7.229l-.516.44C36.3 13.1 33.633 9.57 30.197 7.017c-3.94-2.928-8.632-4.476-13.568-4.477h-.004c-3.33 0-7.38 1.164-10.567 3.038C2.15 7.875-.001 10.947 0 14.228c.001 3.96 2.235 5.617 4.03 6.948 1.464 1.085 2.62 1.943 2.62 3.822 0 1.878-1.155 2.735-2.617 3.82-1.795 1.33-4.028 2.985-4.027 6.946 0 3.28 2.154 6.353 6.062 8.652 3.19 1.877 7.24 3.043 10.572 3.044h.007c6.046 0 11.73-2.334 16.005-6.572 4.22-4.183 6.567-9.728 6.629-15.638 1.433-1.63 2.821-3.251 4.089-4.779 2.168-2.613 3.835-4.769 4.955-6.408 1.484-2.17 2.134-3.502 1.322-4.32zM31.352 39.577c-3.927 3.894-9.149 6.037-14.705 6.037h-.006c-5.954-.002-14.787-4.138-14.79-9.85 0-3.032 1.594-4.213 3.281-5.464 1.577-1.17 3.365-2.495 3.364-5.303 0-2.808-1.789-4.134-3.366-5.304-1.689-1.252-3.283-2.434-3.284-5.466 0-3.508 3.225-5.928 5.147-7.058 2.877-1.691 6.657-2.783 9.632-2.783h.004c4.536 0 8.847 1.423 12.467 4.112 3.338 2.48 5.887 5.963 7.229 9.853-4.003 3.495-8.339 7.526-11.567 10.765-5.362.694-6.093 4.267-6.627 6.893-.455 2.235-.75 3.316-2.475 3.454-.426.035-.772.355-.838.777-.067.42.164.833.558.996.111.046 2.75 1.124 5.834 1.124 2.15 0 3.993-.52 5.479-1.548 1.831-1.265 3.073-3.272 3.697-5.963 2.11-2.134 4.52-4.708 6.903-7.359-.548 4.564-2.608 8.787-5.937 12.088zm-2.82-4.903c-.978 3.876-3.44 5.84-7.321 5.84h-.001c-1.024 0-2.004-.139-2.829-.313.985-1.004 1.292-2.515 1.559-3.824.507-2.493.986-4.853 4.91-5.413l3.682 3.71zm12.745-14.576c-3.658 4.359-8.087 9.254-11.733 12.976l-.564-.57-2.49-2.51c3.305-3.29 7.545-7.213 11.502-10.647.46-.4.92-.795 1.37-1.18 4.592-3.916 6.998-5.62 8.225-6.362-.733 1.235-2.42 3.66-6.31 8.293z"/>
    </g>
    <defs>
        <clipPath id="clip0">
            <path fill="#fff" d="M0 0H50V50H0z"/>
        </clipPath>
    </defs>
</svg>
