<svg xmlns="http://www.w3.org/2000/svg" width="50" height="50" fill="none" viewBox="0 0 50 50">
    <g fill="#001634" clip-path="url(#clip0)">
        <path d="M42.784 0H8.963c-2.465 0-4.47 2.006-4.47 4.47v41.06c0 2.464 2.005 4.47 4.47 4.47h33.821c1.502 0 2.724-1.222 2.724-2.724V2.724C45.508 1.222 44.286 0 42.784 0zM6.445 45.53c0-1.39 1.13-2.519 2.518-2.519h30.685v5.036H8.963c-1.388 0-2.518-1.13-2.518-2.518zm37.11 1.746c0 .425-.346.77-.77.77H41.6v-5.035h1.183c.268 0 .526-.038.77-.11v4.375zm0-6.988c0 .425-.346.77-.77.77H10.351V25.9c0-.54-.438-.977-.977-.977-.54 0-.976.438-.976.977v15.194c-.718.091-1.383.352-1.954.742V4.471c0-1.194.836-2.196 1.954-2.453v23.88c0 .54.437.977.976.977.54 0 .977-.437.977-.977V1.953h32.432c.425 0 .77.346.77.77v37.565z"/>
        <path d="M33.878 10.533c-.738 0-1.464.14-2.142.41-1.06-1.57-2.846-2.541-4.783-2.541-1.937 0-3.722.971-4.783 2.542-.678-.27-1.403-.411-2.142-.411-3.181 0-5.77 2.588-5.77 5.77 0 2.445 1.498 4.566 3.729 5.4V33.1c0 .832.677 1.51 1.509 1.51H34.41c.832 0 1.509-.678 1.509-1.51V21.703c2.23-.834 3.728-2.955 3.728-5.4 0-3.182-2.588-5.77-5.77-5.77zM19.94 32.656v-1.953h14.027v1.953H19.94zm14.787-12.63c-.445.1-.76.496-.76.952v7.772H19.94v-7.772c0-.456-.316-.851-.76-.952-1.748-.397-2.97-1.927-2.97-3.723 0-2.105 1.713-3.817 3.818-3.817.717 0 1.416.2 2.02.578.24.15.534.189.805.106.27-.084.492-.28.607-.54.611-1.382 1.982-2.275 3.493-2.275 1.51 0 2.882.893 3.493 2.276.115.259.336.455.607.539.27.083.564.044.804-.106.605-.378 1.304-.578 2.02-.578 2.106 0 3.818 1.712 3.818 3.817 0 1.796-1.22 3.326-2.968 3.723z"/>
    </g>
    <defs>
        <clipPath id="clip0">
            <path fill="#fff" d="M0 0H50V50H0z"/>
        </clipPath>
    </defs>
</svg>
