<svg xmlns="http://www.w3.org/2000/svg" width="50" height="50" fill="none" viewBox="0 0 50 50">
    <path fill="#001634" d="M9.252 28.924c-.86.511-1.44 1.45-1.44 2.521 0 1.616 1.315 2.93 2.93 2.93 1.273 0 2.359-.816 2.762-1.953h7.59c1.615 0 2.93 1.314 2.93 2.93 0 1.615-1.315 2.93-2.93 2.93H9.375c-2.692 0-4.883 2.19-4.883 4.882 0 2.692 2.19 4.883 4.883 4.883h22.148c.54 0 .977-.437.977-.977 0-.539-.437-.976-.977-.976H9.375c-1.615 0-2.93-1.315-2.93-2.93 0-1.615 1.315-2.93 2.93-2.93h11.719c2.692 0 4.883-2.19 4.883-4.882 0-2.693-2.19-4.883-4.883-4.883h-7.59c-.231-.651-.686-1.197-1.272-1.545l7.459-12.238c1.173-1.763 1.793-3.818 1.793-5.944C21.484 4.82 16.665 0 10.742 0 4.82 0 0 4.819 0 10.742c0 2.126.62 4.18 1.794 5.944l7.458 12.238zm1.49 3.498c-.538 0-.976-.438-.976-.977 0-.538.438-.976.976-.976.539 0 .977.438.977.976 0 .539-.438.977-.977.977zm0-30.469c4.846 0 8.79 3.943 8.79 8.79 0 1.744-.511 3.43-1.477 4.876l-.022.034-7.29 11.963S3.436 15.63 3.428 15.619c-.965-1.446-1.476-3.132-1.476-4.877 0-4.846 3.943-8.789 8.79-8.789z"/>
    <path fill="#001634" d="M10.742 15.625c2.693 0 4.883-2.19 4.883-4.883 0-2.692-2.19-4.883-4.883-4.883-2.692 0-4.883 2.19-4.883 4.883s2.19 4.883 4.883 4.883zm0-7.813c1.616 0 2.93 1.315 2.93 2.93 0 1.616-1.314 2.93-2.93 2.93-1.615 0-2.93-1.314-2.93-2.93 0-1.615 1.315-2.93 2.93-2.93zM39.258 16.21c-5.923 0-10.742 4.82-10.742 10.743 0 2.129.622 4.187 1.799 5.953l7.43 11.656c-.575.348-1.02.889-1.249 1.532H27.93c-.54 0-.977.437-.977.976 0 .54.437.977.977.977h8.566C36.9 49.184 37.985 50 39.258 50c1.615 0 2.93-1.314 2.93-2.93 0-1.062-.57-1.994-1.418-2.508l7.43-11.656c1.178-1.766 1.8-3.824 1.8-5.953 0-5.923-4.819-10.742-10.742-10.742zm0 31.837c-.539 0-.977-.438-.977-.977 0-.538.438-.976.977-.976.538 0 .976.438.976.976 0 .539-.438.977-.976.977zM46.57 31.83L39.258 43.3l-7.313-11.47c-.966-1.446-1.476-3.132-1.476-4.877 0-4.846 3.942-8.789 8.789-8.789 4.846 0 8.789 3.943 8.789 8.79 0 1.744-.51 3.43-1.476 4.876z"/>
    <path fill="#001634" d="M39.258 22.07c-2.693 0-4.883 2.19-4.883 4.883 0 2.692 2.19 4.883 4.883 4.883 2.692 0 4.883-2.19 4.883-4.883 0-2.692-2.19-4.883-4.883-4.883zm0 7.813c-1.616 0-2.93-1.314-2.93-2.93 0-1.615 1.314-2.93 2.93-2.93 1.615 0 2.93 1.315 2.93 2.93 0 1.616-1.315 2.93-2.93 2.93z"/>
</svg>
