<svg xmlns="http://www.w3.org/2000/svg" width="104" height="104" fill="none" viewBox="0 0 104 104">
    <path fill="#001634" d="M88.68 7.429h-71.5c-5.383 0-9.75 4.367-9.75 9.75v71.5c0 5.382 4.367 9.75 9.75 9.75h71.5c5.382 0 9.75-4.368 9.75-9.75v-71.5c0-5.383-4.368-9.75-9.75-9.75zm-1.32 63.964c-.712 1.645-3.677 2.843-9.1 3.697-.285.385-.508 1.99-.874 3.23-.224.75-.752 1.198-1.645 1.198H75.7c-1.26 0-2.6-.59-5.24-.59-3.576 0-4.815.813-7.597 2.783-2.946 2.093-5.77 3.88-9.994 3.697-4.266.325-7.84-2.275-9.852-3.697-2.803-1.97-4.022-2.782-7.597-2.782-2.539 0-4.143.63-5.24.63-1.097 0-1.524-.671-1.686-1.22-.366-1.239-.59-2.864-.874-3.25-2.803-.426-9.1-1.523-9.242-4.346-.04-.732.467-1.382 1.199-1.503 9.404-1.544 13.63-11.193 13.812-11.599 0-.02.02-.04.04-.06.508-1.017.61-1.87.326-2.54-.69-1.605-3.636-2.173-4.875-2.681-3.21-1.26-3.657-2.722-3.453-3.717.325-1.727 2.925-2.803 4.448-2.093 1.198.57 2.275.854 3.19.854.67 0 1.116-.163 1.34-.285-.285-4.855-.955-11.781.772-15.66 4.57-10.218 14.239-11.03 17.082-11.03.122 0 1.24-.02 1.361-.02 7.049 0 13.813 3.615 17.124 11.029 1.726 3.88 1.056 10.786.772 15.66.223.123.589.265 1.157.285.874-.04 1.87-.325 2.986-.853.813-.386 1.95-.325 2.763 0 1.28.467 2.092 1.381 2.112 2.417.02 1.32-1.157 2.458-3.493 3.372-.285.122-.63.224-.996.345-1.32.427-3.33 1.057-3.86 2.337-.283.67-.162 1.523.326 2.538.02.02.02.041.04.061.183.407 4.408 10.055 13.813 11.599.813.203 1.442 1.117.995 2.194z"/>
</svg>
