<svg xmlns="http://www.w3.org/2000/svg" width="104" height="104" fill="none" viewBox="0 0 104 104">
    <path fill="#001634" d="M41.163 18.503c5.98 1.127 14.734 3.77 19.5 5.33 11.917 4.117 15.99 9.23 15.99 20.757 0 11.267-6.933 15.513-15.773 11.267V34.883c0-2.383-.433-4.68-2.773-5.33-1.777-.563-2.817 1.084-2.817 3.51v52.434L41.163 80.99V18.503zm16.77 57.85l22.75-8.103c2.6-.91 2.99-2.21.91-2.903-2.123-.694-5.893-.477-8.493.433l-15.166 5.33v-8.493l.91-.304s4.376-1.646 10.486-2.21c6.197-.693 13.737.087 19.63 2.297 6.674 2.123 7.454 5.243 5.764 7.367-1.734 2.166-5.894 3.683-5.894 3.683L57.934 84.5v-8.147zm-42.77-.866c-6.803-1.82-7.973-5.937-4.853-8.32 2.903-2.167 7.8-3.684 7.8-3.684l20.28-7.15v8.147l-14.56 5.243c-2.6.91-2.99 2.21-.91 2.904 2.08.693 5.893.52 8.45-.434l7.02-2.513v7.323l-1.386.26c-7.02 1.127-14.474.737-21.84-1.776z"/>
</svg>
