<svg xmlns="http://www.w3.org/2000/svg" width="50" height="50" fill="none" viewBox="0 0 50 50">
    <path fill="#001634" d="M47.5 10H36.667V6.667C36.664 4.367 34.8 2.503 32.5 2.5h-15c-2.3.003-4.164 1.866-4.167 4.167V10H2.5C1.12 10 0 11.12 0 12.5v18.55c.005 1.057.671 1.997 1.667 2.353V45c0 1.38 1.119 2.5 2.5 2.5h41.666c1.38 0 2.5-1.12 2.5-2.5V33.403c.996-.355 1.662-1.296 1.667-2.353V12.5c0-1.38-1.12-2.5-2.5-2.5zM15 6.667c0-1.38 1.12-2.5 2.5-2.5h15c1.38 0 2.5 1.12 2.5 2.5V10h-1.667V6.667c0-.46-.373-.834-.833-.834h-15c-.46 0-.833.373-.833.834V10H15V6.667zM31.667 10H18.333V7.5h13.334V10zm15 35c0 .46-.373.833-.834.833H4.167c-.46 0-.834-.373-.834-.833V33.689l18.334 2.528v2.116c0 1.38 1.12 2.5 2.5 2.5h1.666c1.38 0 2.5-1.12 2.5-2.5v-2.116l18.334-2.528V45zm-20-6.667c0 .46-.373.834-.834.834h-1.666c-.46 0-.834-.373-.834-.834v-5c0-.46.373-.833.834-.833h1.666c.46 0 .834.373.834.833v5zm21.666-7.283c0 .415-.305.768-.716.826l-.231.032-19.053 2.627v-1.202c0-1.38-1.12-2.5-2.5-2.5h-1.666c-1.38 0-2.5 1.12-2.5 2.5v1.202l-19.283-2.66c-.411-.057-.718-.41-.717-.825V12.5c0-.46.373-.833.833-.833h45c.46 0 .833.373.833.833v18.55z"/>
</svg>
