<svg xmlns="http://www.w3.org/2000/svg" width="64" height="47" fill="none" viewBox="0 0 64 47">
    <path fill="#fff" d="M28.704.2L23.328 17h-6.072l-2.712-8.976L11.688 17H5.616L.24.2h5.832L9 9.752 12.096.2h5.208l2.928 9.672L23.328.2h5.376zM40.8 14.072h-6.384L33.288 17h-5.76L34.872.2h5.568L47.784 17h-5.856L40.8 14.072zm-1.56-4.08l-1.632-4.224-1.632 4.224h3.264zm18.354.912V17H51.93v-6.168L45.594.2h5.976l3.432 5.808L58.458.2h5.472l-6.336 10.704zM14.808 37.216c.992.368 1.76.904 2.304 1.608.544.704.816 1.552.816 2.544 0 1.472-.608 2.616-1.824 3.432-1.216.8-2.976 1.2-5.28 1.2H1.368V29.2h8.976c2.24 0 3.928.4 5.064 1.2 1.152.8 1.728 1.864 1.728 3.192 0 .784-.2 1.488-.6 2.112-.384.624-.96 1.128-1.728 1.512zM6.936 33.16v2.496h2.64c1.232 0 1.848-.416 1.848-1.248 0-.832-.616-1.248-1.848-1.248h-2.64zm3.408 8.88c1.248 0 1.872-.44 1.872-1.32 0-.88-.624-1.32-1.872-1.32H6.936v2.64h3.408zm23.554-.312V46H19.93V29.2h13.657v4.272h-8.089v1.968h7.104v4.08H25.5v2.208h8.4zm11.656 4.512c-.912 0-1.672-.288-2.28-.864-.592-.592-.888-1.344-.888-2.256 0-.912.296-1.648.888-2.208.608-.576 1.368-.864 2.28-.864.912 0 1.664.288 2.256.864.608.56.912 1.296.912 2.208 0 .912-.304 1.664-.912 2.256-.592.576-1.344.864-2.256.864z"/>
</svg>
