<svg xmlns="http://www.w3.org/2000/svg" width="16" height="16" fill="none" viewBox="0 0 16 16">
    <g clip-path="url(#clip0)">
        <path fill="#fff" d="M15.454 3.125H.546c-.301 0-.546.245-.546.546v8.639c0 .3.245.546.546.546h14.908c.301 0 .546-.245.546-.546V3.67c0-.3-.245-.545-.546-.545zM.938 4.47l4.485 2.98-4.485 3.904V4.47zM8 8.036L2.023 4.063h11.954L8 8.036zM6.234 7.99l1.464.973c.092.061.197.092.302.092.105 0 .21-.03.302-.092l1.464-.973 4.513 3.928H1.72L6.234 7.99zm4.343-.539l4.485-2.98v6.884L10.576 7.45z"/>
    </g>
    <defs>
        <clipPath id="clip0">
            <path fill="#fff" d="M0 0H16V16H0z"/>
        </clipPath>
    </defs>
</svg>
