<svg xmlns="http://www.w3.org/2000/svg" width="24" height="25" fill="none" viewBox="0 0 24 25">
    <g clip-path="url(#clip0)">
        <path fill="#fff" d="M13.618 24h-3.85c-.644 0-1.167-.523-1.167-1.166v-8.686H6.354c-.643 0-1.167-.524-1.167-1.167V9.26c0-.643.524-1.166 1.167-1.166h2.247V6.229c0-1.848.58-3.42 1.678-4.547C11.38.551 12.922-.047 14.735-.047l2.937.005c.642.001 1.164.524 1.164 1.166V4.58c0 .643-.523 1.167-1.166 1.167h-1.977c-.603 0-.757.121-.79.158-.054.062-.118.235-.118.715v1.473h2.736c.206 0 .406.05.578.146.37.207.6.598.6 1.02l-.002 3.722c0 .643-.523 1.167-1.166 1.167h-2.746v8.686c0 .643-.524 1.166-1.167 1.166zm-3.608-1.41h3.365v-9.073c0-.43.35-.78.779-.78h3.134V9.504h-3.135c-.429 0-.778-.35-.778-.78V6.62c0-.55.056-1.177.471-1.648.503-.569 1.294-.634 1.846-.634l1.734-.001v-2.97l-2.692-.004c-2.913 0-4.724 1.865-4.724 4.866v2.495c0 .43-.349.779-.778.779H6.597v3.235h2.635c.43 0 .778.35.778.779v9.073zM17.67 1.368z"/>
    </g>
    <defs>
        <clipPath id="clip0">
            <path fill="#fff" d="M0 0H24V24.047H0z"/>
        </clipPath>
    </defs>
</svg>
