<svg xmlns="http://www.w3.org/2000/svg" width="24" height="24" fill="none" viewBox="0 0 24 24">
    <path fill="#fff" d="M17.503 0H6.497C2.914 0 0 2.914 0 6.497v11.007C0 21.086 2.914 24 6.497 24h11.007C21.086 24 24 21.086 24 17.504V6.497C24 2.914 21.086 0 17.503 0zm5.09 17.504c0 2.806-2.283 5.089-5.09 5.089H6.497c-2.807 0-5.09-2.283-5.09-5.09V6.498c0-2.807 2.283-5.09 5.09-5.09h11.007c2.806 0 5.089 2.283 5.089 5.09v11.007z"/>
    <path fill="#fff" d="M12 5.438C8.38 5.438 5.437 8.382 5.437 12c0 3.619 2.944 6.562 6.563 6.562 3.618 0 6.562-2.943 6.562-6.562 0-3.618-2.944-6.562-6.562-6.562zm0 11.717c-2.843 0-5.156-2.312-5.156-5.155 0-2.842 2.313-5.155 5.156-5.155 2.842 0 5.155 2.313 5.155 5.155 0 2.843-2.313 5.155-5.155 5.155zM18.72 3.107c-1.069 0-1.939.87-1.939 1.94 0 1.069.87 1.939 1.94 1.939 1.069 0 1.939-.87 1.939-1.94 0-1.07-.87-1.939-1.94-1.939zm0 2.471c-.293 0-.532-.238-.532-.532 0-.293.239-.532.532-.532.294 0 .533.239.533.532 0 .294-.24.532-.533.532z"/>
</svg>
