<svg xmlns="http://www.w3.org/2000/svg" width="24" height="24" fill="none" viewBox="0 0 24 24">
    <g clip-path="url(#clip0)">
        <path fill="#fff" d="M6.204 7.107H2.158c-.453 0-.822.37-.822.823v15.248c0 .453.369.822.822.822h4.046c.454 0 .823-.369.823-.822V7.93c0-.454-.37-.823-.823-.823zm-.586 15.485H2.744V8.516h2.874v14.076zM4.181 0C2.6 0 1.312 1.287 1.312 2.869c0 1.582 1.287 2.869 2.87 2.869 1.581 0 2.868-1.287 2.868-2.87C7.05 1.288 5.763 0 4.181 0zm0 4.33c-.805 0-1.46-.656-1.46-1.461 0-.806.655-1.46 1.46-1.46.806 0 1.46.654 1.46 1.46 0 .805-.654 1.46-1.46 1.46zM20.11 8.895c-.967-.807-2.197-1.239-3.46-1.215-.786.014-1.553.203-2.248.546v-.333c0-.434-.352-.785-.786-.785h-4.12c-.433 0-.785.351-.785.785v15.322c0 .433.352.785.785.785h4.201c.39 0 .705-.315.705-.704v-9.135c0-.782.611-1.444 1.393-1.467.812-.024 1.48.63 1.48 1.436v9.18c0 .381.31.69.69.69h4.037c.38 0 .69-.309.69-.69v-8.9c0-2.135-.941-4.145-2.582-5.515zm1.173 13.697h-2.599V14.13c0-1.57-1.277-2.846-2.846-2.846-1.568 0-2.845 1.277-2.845 2.845v8.462H10.12V8.516h2.874v1.023h.001c0 .166.058.333.176.467.258.291.703.318.994.06.694-.614 1.586-.961 2.511-.979.926-.017 1.825.299 2.533.89 1.319 1.1 2.075 2.716 2.075 4.433v8.182z"/>
    </g>
    <defs>
        <clipPath id="clip0">
            <path fill="#fff" d="M0 0H24V24H0z"/>
        </clipPath>
    </defs>
</svg>
