<svg xmlns="http://www.w3.org/2000/svg" width="16" height="16" fill="none" viewBox="0 0 16 16">
    <circle cx="8" cy="8" r="8" fill="#8B98A9"/>
    <path fill="#fff" d="M6.352 9.849c0-.666.075-1.19.225-1.573.15-.387.394-.722.732-1.005.337-.282.592-.54.765-.772.178-.237.267-.497.267-.78 0-.687-.296-1.032-.889-1.032-.273 0-.494.1-.663.301-.169.2-.257.472-.267.814h-2.31c.009-.912.296-1.62.861-2.126.565-.51 1.358-.766 2.38-.766 1.015 0 1.802.235 2.358.704.56.47.84 1.137.84 2.003 0 .378-.075.723-.225 1.032-.15.31-.392.627-.725.95l-.786.732c-.223.214-.378.435-.465.663-.086.223-.134.508-.143.855H6.352zm-.28 2.078c0-.338.12-.613.362-.827.246-.22.551-.329.916-.329.364 0 .667.11.909.329.246.214.369.49.369.827 0 .337-.123.615-.37.834-.24.214-.544.321-.908.321-.365 0-.67-.107-.916-.321-.242-.219-.363-.497-.363-.834z"/>
</svg>
