<svg xmlns="http://www.w3.org/2000/svg" width="16" height="16" fill="none" viewBox="0 0 16 16">
    <g clip-path="url(#clip0)">
        <path fill="#fff" d="M15.868 2.103c-.157-.191-.417-.262-.648-.177L.543 7.23c-.293.107-.499.365-.537.674-.038.308.098.607.353.78l2.098 1.431c.203.14.464.154.682.04l4.55-2.4-3.546 2.648c-.167.124-.266.322-.266.53v2.453c0 .253.139.485.362.606.224.12.494.108.707-.032l1.594-1.057 1.567 1.068c.137.094.3.144.466.144.056 0 .112-.006.167-.017.22-.046.415-.182.534-.373l6.64-10.95c.13-.21.111-.48-.046-.672zM8.538 13.13l-1.623-1.107c-.113-.077-.243-.116-.373-.116-.128 0-.255.037-.366.111l-1.361.903v-1.85l6.263-4.676c.28-.209.35-.589.164-.884-.187-.295-.56-.395-.87-.232L2.849 9.247 1.074 8.036l13.515-4.884-6.051 9.978z"/>
    </g>
    <defs>
        <clipPath id="clip0">
            <path fill="#fff" d="M0 0H16V16H0z"/>
        </clipPath>
    </defs>
</svg>
