<svg xmlns="http://www.w3.org/2000/svg" width="24" height="24" fill="none" viewBox="0 0 24 24">
    <path fill="#fff" d="M15.888 11.404l-5.625-3.516c-.216-.135-.49-.143-.713-.019-.224.124-.363.36-.363.615v7.032c0 .255.14.49.363.615.106.058.223.088.34.088.13 0 .26-.036.373-.107l5.625-3.516c.206-.128.33-.354.33-.596s-.124-.468-.33-.596zm-5.294 2.843V9.753L14.189 12l-3.595 2.247z"/>
    <path fill="#fff" d="M20.484 3H3.516C1.577 3 0 4.577 0 6.516v11.25c0 1.938 1.577 3.515 3.516 3.515h16.968c1.939 0 3.516-1.577 3.516-3.515V6.516C24 4.577 22.423 3 20.484 3zm2.11 14.766c0 1.163-.947 2.109-2.11 2.109H3.516c-1.163 0-2.11-.946-2.11-2.11V6.516c0-1.162.947-2.109 2.11-2.109h16.968c1.163 0 2.11.947 2.11 2.11v11.25z"/>
</svg>
